<?xml version="1.0" standalone="no"?>
<!DOCTYPE svg PUBLIC "-//W3C//DTD SVG 20010904//EN"
 "http://www.w3.org/TR/2001/REC-SVG-20010904/DTD/svg10.dtd">
<svg version="1.0" xmlns="http://www.w3.org/2000/svg"
 width="700.000000pt" height="700.000000pt" viewBox="0 0 700.000000 700.000000"
 preserveAspectRatio="xMidYMid meet">
<metadata>
Created by potrace 1.11, written by Peter Selinger 2001-2013
</metadata>
<g transform="translate(0.000000,700.000000) scale(0.100000,-0.100000)"
fill="#000000" stroke="none">
<path d="M3320 6994 c-518 -35 -953 -150 -1384 -366 -998 -499 -1707 -1457
-1885 -2548 -36 -221 -44 -330 -44 -580 0 -251 8 -360 44 -580 210 -1273 1129
-2344 2357 -2744 230 -75 463 -125 732 -158 137 -17 583 -17 720 0 569 69
1028 227 1491 514 240 148 442 312 659 534 539 553 865 1237 966 2029 25 196
25 614 0 810 -105 820 -450 1525 -1023 2086 -567 556 -1270 893 -2058 984
-129 15 -470 26 -575 19z m975 -1363 c321 -48 541 -152 715 -339 178 -189 260
-444 247 -759 -14 -331 -126 -541 -375 -704 -40 -26 -82 -51 -92 -54 -22 -7
-27 -25 -7 -25 22 0 181 -85 238 -127 81 -60 188 -180 237 -265 97 -171 138
-361 129 -608 -8 -239 -59 -410 -182 -609 -176 -284 -461 -470 -815 -530 -223
-38 -320 -41 -1347 -41 l-1003 0 0 2040 0 2040 1063 0 c998 0 1070 -1 1192
-19z"/>
<path d="M2860 4491 l0 -451 483 0 c265 0 536 5 602 10 361 31 512 173 498
470 -2 47 -10 108 -18 136 -32 111 -119 196 -232 229 -155 45 -185 47 -770 52
l-563 5 0 -451z"/>
<path d="M3118 3363 l-258 -3 0 -541 0 -540 608 3 c597 4 608 4 682 27 108 32
183 76 244 141 90 98 136 232 136 398 0 155 -35 256 -120 346 -131 139 -317
179 -810 174 -124 -2 -341 -4 -482 -5z"/>
</g>
</svg>
